Coordinates
version=1
nRows=16
nColumns=38
inDegrees=no

Units are S.I. units (second, meters, Newtons, ...)
If the header above contains a line with 'inDegrees', this indicates whether rotational values are in degrees (yes) or radians (no).

endheader
time	pelvis_tilt	pelvis_list	pelvis_rotation	pelvis_tx	pelvis_ty	pelvis_tz	hip_flexion_r	hip_adduction_r	hip_rotation_r	knee_angle_r	ankle_angle_r	subtalar_angle_r	mtp_angle_r	hip_flexion_l	hip_adduction_l	hip_rotation_l	knee_angle_l	ankle_angle_l	subtalar_angle_l	mtp_angle_l	lumbar_extension	lumbar_bending	lumbar_rotation	arm_flex_r	arm_add_r	arm_rot_r	elbow_flex_r	pro_sup_r	wrist_flex_r	wrist_dev_r	arm_flex_l	arm_add_l	arm_rot_l	elbow_flex_l	pro_sup_l	wrist_flex_l	wrist_dev_l
20.59	2.97011	1.3616	-1.28369	0.660911	-0.188063	0.950065	-0.256531	0.0398281	-0.0545738	0.249915	-0.193832	0	0	-0.222387	-0.100633	-0.0628674	0.33441	-0.137599	0	0	-0.247213	0.0761835	-0.0473895	-0.0195746	-0.324592	0.388539	0.590573	1.4981	0	0	0.0579555	-0.258656	0.434647	0.613948	1.5708	0	0
20.6	2.96805	1.36118	-1.28173	0.661014	-0.188048	0.950063	-0.256792	0.0406622	-0.0540383	0.249996	-0.193926	0	0	-0.222858	-0.101113	-0.0613041	0.33447	-0.137119	0	0	-0.247439	0.0766343	-0.0473959	-0.0192553	-0.324947	0.391053	0.591257	1.49107	0	0	0.0576251	-0.258869	0.434467	0.614318	1.5708	0	0
20.61	2.96534	1.36072	-1.2791	0.661156	-0.187976	0.950062	-0.257346	0.0417343	-0.0532624	0.249523	-0.193964	0	0	-0.223601	-0.101648	-0.058951	0.33389	-0.1364	0	0	-0.247542	0.0771536	-0.0473863	-0.0189541	-0.325235	0.394015	0.591829	1.48478	0	0	0.0571445	-0.259279	0.434568	0.614925	1.5708	0	0
20.62	2.96456	1.36032	-1.2783	0.661184	-0.18794	0.950081	-0.257861	0.0421275	-0.0530353	0.249208	-0.194083	0	0	-0.22406	-0.101825	-0.0580544	0.333765	-0.136077	0	0	-0.247823	0.0774021	-0.0475511	-0.0184975	-0.325858	0.39745	0.592496	1.47934	0	0	0.0568625	-0.259421	0.434664	0.615217	1.5708	0	0
20.63	2.96039	1.36317	-1.27439	0.661186	-0.187872	0.949895	-0.253364	0.0419315	-0.0527874	0.252933	-0.190036	0	0	-0.22	-0.101805	-0.0578567	0.336009	-0.133863	0	0	-0.245039	0.0769221	-0.0474714	-0.0215329	-0.315546	0.362747	0.58699	1.52844	0	0	0.0556698	-0.258382	0.430675	0.615247	1.5708	0	0
20.64	2.96168	1.36196	-1.2757	0.661152	-0.187887	0.949974	-0.25511	0.042012	-0.0525015	0.251725	-0.191691	0	0	-0.221621	-0.10183	-0.0580855	0.334968	-0.135098	0	0	-0.246402	0.0770714	-0.0467652	-0.0214681	-0.31733	0.368236	0.588768	1.52129	0	0	0.0567132	-0.258522	0.433506	0.614828	1.5708	0	0
20.65	2.96245	1.36107	-1.27649	0.661147	-0.187898	0.950015	-0.256322	0.0421511	-0.0523637	0.250986	-0.192631	0	0	-0.222736	-0.101902	-0.0579669	0.334515	-0.135523	0	0	-0.247506	0.0771259	-0.0463476	-0.0210696	-0.318824	0.373685	0.589983	1.51467	0	0	0.0571988	-0.258644	0.435087	0.614902	1.5708	0	0
20.66	2.96315	1.36038	-1.27723	0.661151	-0.187902	0.950044	-0.257174	0.0422427	-0.0524417	0.250554	-0.193124	0	0	-0.223459	-0.101951	-0.0579006	0.334625	-0.135621	0	0	-0.248346	0.0771712	-0.0461673	-0.020408	-0.320085	0.378974	0.590636	1.50844	0	0	0.0572789	-0.259003	0.436526	0.615318	1.5708	0	0
20.67	2.96404	1.35987	-1.27801	0.661132	-0.187884	0.950075	-0.257875	0.0422471	-0.0526527	0.250223	-0.193406	0	0	-0.223954	-0.101931	-0.057769	0.334983	-0.135844	0	0	-0.248873	0.0772541	-0.046291	-0.0196965	-0.321183	0.383881	0.590983	1.50242	0	0	0.0573462	-0.259249	0.437777	0.615346	1.5708	0	0
20.68	2.96476	1.35951	-1.27861	0.661114	-0.187856	0.950101	-0.258426	0.0422352	-0.0526976	0.249979	-0.193659	0	0	-0.224405	-0.101896	-0.0576383	0.334913	-0.13594	0	0	-0.249233	0.0772852	-0.0464617	-0.0189824	-0.32208	0.388364	0.591041	1.49652	0	0	0.0574403	-0.259247	0.438404	0.615116	1.5708	0	0
20.69	2.96514	1.35925	-1.27909	0.661107	-0.187827	0.950134	-0.258752	0.0422086	-0.0525613	0.249891	-0.193902	0	0	-0.224934	-0.101809	-0.0576546	0.334302	-0.135852	0	0	-0.249542	0.0772798	-0.0464677	-0.0182183	-0.322922	0.392563	0.590967	1.49088	0	0	0.0575885	-0.258975	0.438444	0.6147	1.5708	0	0
20.7	2.96522	1.35908	-1.27928	0.661088	-0.187786	0.950145	-0.258975	0.0422312	-0.0522191	0.249817	-0.194047	0	0	-0.225253	-0.101746	-0.0576888	0.333936	-0.135869	0	0	-0.249695	0.0773327	-0.0465365	-0.0174952	-0.323898	0.396677	0.591045	1.48578	0	0	0.0577516	-0.258582	0.438147	0.614227	1.5708	0	0
20.71	2.9654	1.35888	-1.27953	0.661072	-0.187754	0.950138	-0.259212	0.0422326	-0.051835	0.249881	-0.194089	0	0	-0.225461	-0.101714	-0.0575959	0.334121	-0.13574	0	0	-0.249868	0.0773467	-0.0466011	-0.016773	-0.324869	0.400591	0.591135	1.48106	0	0	0.0577858	-0.258388	0.437957	0.614046	1.5708	0	0
20.72	2.96129	1.36211	-1.27552	0.6611	-0.187647	0.949912	-0.254241	0.0420133	-0.0519178	0.253967	-0.189542	0	0	-0.220953	-0.101643	-0.0568443	0.336852	-0.133325	0	0	-0.246575	0.0765007	-0.0462488	-0.0204185	-0.313093	0.360208	0.58423	1.53636	0	0	0.0568669	-0.257676	0.434794	0.614126	1.5708	0	0
20.73	2.96257	1.36071	-1.27683	0.66108	-0.18764	0.950005	-0.256122	0.0421441	-0.0523169	0.252937	-0.191122	0	0	-0.222886	-0.101721	-0.0567532	0.335844	-0.134492	0	0	-0.248013	0.0766368	-0.0455657	-0.0203478	-0.314907	0.364902	0.585694	1.52839	0	0	0.0579323	-0.258133	0.437914	0.613877	1.5708	0	0
20.74	2.96323	1.35986	-1.2775	0.661046	-0.187603	0.950047	-0.25732	0.0422074	-0.052713	0.252291	-0.192086	0	0	-0.224154	-0.101759	-0.0567122	0.334884	-0.134994	0	0	-0.248877	0.076831	-0.0451355	-0.0203184	-0.316608	0.369091	0.587079	1.52065	0	0	0.058667	-0.257997	0.438954	0.613425	1.5708	0	0
